<?xml version="1.0" encoding="UTF-8" standalone="no"?>
<!-- Created with Inkscape (http://www.inkscape.org/) -->

<svg
   version="1.1"
   id="svg1"
   width="380"
   height="916"
   viewBox="0 0 380 916"
   sodipodi:docname="IBM_block_5.svg"
   inkscape:version="1.4.2 (1:1.4.2+202505120738+ebf0e940d0)"
   xmlns:inkscape="http://www.inkscape.org/namespaces/inkscape"
   xmlns:sodipodi="http://sodipodi.sourceforge.net/DTD/sodipodi-0.dtd"
   xmlns="http://www.w3.org/2000/svg"
   xmlns:svg="http://www.w3.org/2000/svg">
  <defs
     id="defs1">
    <clipPath
       clipPathUnits="userSpaceOnUse"
       id="clipPath28">
      <path
         d="M 0,0 H 285 V 687 H 0 Z"
         transform="scale(1,1.000042)"
         id="path28" />
    </clipPath>
    <clipPath
       clipPathUnits="userSpaceOnUse"
       id="clipPath33">
      <path
         d="M 0,0 H 285 V 687 H 0 Z"
         transform="scale(1,1.000042)"
         id="path33" />
    </clipPath>
    <clipPath
       clipPathUnits="userSpaceOnUse"
       id="clipPath35">
      <path
         d="M 0,0 H 285 V 687 H 0 Z"
         transform="scale(1,1.000042)"
         id="path35" />
    </clipPath>
  </defs>
  <sodipodi:namedview
     id="namedview1"
     pagecolor="#ffffff"
     bordercolor="#666666"
     borderopacity="1.0"
     inkscape:showpageshadow="2"
     inkscape:pageopacity="0.0"
     inkscape:pagecheckerboard="0"
     inkscape:deskcolor="#d1d1d1"
     inkscape:zoom="0.90938865"
     inkscape:cx="190.2377"
     inkscape:cy="458"
     inkscape:window-width="1920"
     inkscape:window-height="1016"
     inkscape:window-x="0"
     inkscape:window-y="27"
     inkscape:window-maximized="1"
     inkscape:current-layer="g1">
    <inkscape:page
       x="0"
       y="0"
       id="page1"
       width="380"
       height="916"
       margin="0"
       bleed="0" />
  </sodipodi:namedview>
  <g
     id="g1"
     inkscape:groupmode="layer"
     inkscape:label="">
    <path
       id="path1"
       d="M 62.846,-79.195 H 230.619 V -191.984 H 62.846 Z"
       style="fill:none;stroke:#000000;stroke-width:2.61583;stroke-linecap:butt;stroke-linejoin:round;stroke-miterlimit:4;stroke-dasharray:none;stroke-opacity:1"
       transform="matrix(0,1.3332773,-1.3333333,0,0,0)" />
    <path
       id="path2"
       d="M 105.449,110.688 H 82.98 v 1.269 h 0.989 c 3.14,0 3.23,0.453 3.23,1.91 v 21.445 c 0,1.473 -0.09,1.922 -3.23,1.922 H 82.98 v 1.274 c 1.438,-0.129 4.629,-0.129 6.227,-0.129 1.672,0 5.402,0 6.871,0.129 v -1.274 h -1.355 c -3.895,0 -3.895,-0.523 -3.895,-1.961 v -10.062 h 3.535 c 3.926,0 4.336,1.309 4.336,4.789 h 1.008 v -10.84 h -1.008 c 0,3.434 -0.41,4.781 -4.336,4.781 h -3.535 v -10.359 c 0,-1.348 0.094,-1.625 2.024,-1.625 h 4.894 c 6.149,0 7.164,2.285 7.82,7.938 h 1.024 z"
       style="fill:#000000;fill-opacity:1;fill-rule:evenodd;stroke:none"
       transform="scale(1.3333333)" />
    <path
       id="path3"
       d="m 115.574,110.113 -5.886,0.449 v 1.262 c 2.855,0 3.195,0.289 3.195,2.305 v 21.281 c 0,1.824 -0.457,1.824 -3.195,1.824 v 1.274 c 1.343,-0.043 3.515,-0.129 4.539,-0.129 1.027,0 3.031,0.086 4.543,0.129 v -1.274 c -2.747,0 -3.196,0 -3.196,-1.824 z"
       style="fill:#000000;fill-opacity:1;fill-rule:evenodd;stroke:none"
       transform="scale(1.3333333)" />
    <path
       id="path4"
       d="m 135.668,135.273 v 3.688 l 5.891,-0.453 v -1.274 c -2.86,0 -3.196,-0.273 -3.196,-2.281 v -14.527 l -6.015,0.449 v 1.277 c 2.871,0 3.191,0.278 3.191,2.282 v 7.285 c 0,3.554 -1.961,6.336 -4.953,6.336 -3.426,0 -3.59,-1.918 -3.59,-4.059 v -13.57 l -6.016,0.449 v 1.277 c 3.196,0 3.196,0.114 3.196,3.75 v 6.137 c 0,3.191 0,6.922 6.207,6.922 2.301,0 4.097,-1.152 5.285,-3.688 z"
       style="fill:#000000;fill-opacity:1;fill-rule:evenodd;stroke:none"
       transform="scale(1.3333333)" />
    <path
       id="path5"
       d="m 149.676,120.426 -5.727,0.449 v 1.277 c 2.653,0 3.031,0.239 3.031,2.239 v 11.019 c 0,1.824 -0.453,1.824 -3.207,1.824 v 1.274 c 1.321,-0.043 3.528,-0.129 4.512,-0.129 1.438,0 2.856,0.086 4.262,0.129 v -1.274 c -2.707,0 -2.871,-0.207 -2.871,-1.796 z"
       style="fill:#000000;fill-opacity:1;fill-rule:evenodd;stroke:none"
       transform="scale(1.3333333)" />
    <path
       id="path6"
       d="m 149.84,113.309 v -0.125 l -0.012,-0.118 -0.016,-0.117 -0.023,-0.113 -0.023,-0.106 -0.028,-0.109 -0.039,-0.101 -0.043,-0.102 -0.039,-0.098 -0.051,-0.097 -0.054,-0.094 -0.059,-0.09 -0.058,-0.082 -0.067,-0.082 -0.074,-0.07 -0.07,-0.078 -0.075,-0.067 -0.082,-0.058 -0.082,-0.071 -0.082,-0.051 -0.093,-0.05 -0.094,-0.055 -0.098,-0.043 -0.086,-0.039 -0.101,-0.027 -0.098,-0.039 -0.102,-0.032 -0.105,-0.011 -0.098,-0.024 -0.105,-0.015 -0.11,-0.004 h -0.105 c -1.273,0 -2.164,1.093 -2.164,2.168 0,1.097 0.891,2.168 2.164,2.168 1.144,0 2.172,-0.868 2.172,-2.168 z"
       style="fill:#000000;fill-opacity:1;fill-rule:evenodd;stroke:none"
       transform="scale(1.3333333)" />
    <path
       id="path7"
       d="m 169.32,136.258 v 2.703 l 6,-0.453 v -1.274 c -2.859,0 -3.179,-0.273 -3.179,-2.281 v -24.84 l -5.895,0.449 v 1.262 c 2.863,0 3.184,0.289 3.184,2.305 v 8.824 c -1.18,-1.461 -2.938,-2.527 -5.157,-2.527 l 0.165,0.902 c 1.441,0 3.152,0.617 4.425,2.449 0.457,0.688 0.457,0.778 0.457,1.508 v 8.395 c 0,0.73 0,0.82 -0.457,1.523 -1.23,1.961 -3.078,2.852 -4.836,2.852 -1.828,0 -3.312,-1.067 -4.285,-2.617 -1.058,-1.676 -1.191,-4.016 -1.191,-5.684 0,-1.512 0.074,-3.973 1.273,-5.813 0.852,-1.265 2.406,-2.613 4.614,-2.613 l -0.165,-0.902 c -4.828,0 -9.125,4.008 -9.125,9.277 0,5.199 4.02,9.258 8.672,9.258 2.621,0 4.469,-1.391 5.5,-2.703 z"
       style="fill:#000000;fill-opacity:1;fill-rule:evenodd;stroke:none"
       transform="scale(1.3333333)" />
    <path
       id="path8"
       d="m 95.914,171.707 -5.238,-1.258 c -2.535,-0.621 -4.133,-2.832 -4.133,-5.203 0,-2.867 2.211,-5.363 5.402,-5.363 6.828,0 7.731,6.711 7.965,8.558 0.043,0.235 0.043,0.481 0.508,0.481 0.523,0 0.523,-0.203 0.523,-0.981 v -8.211 c 0,-0.71 0,-0.988 -0.441,-0.988 -0.293,0 -0.344,0.031 -0.621,0.531 l -1.426,2.332 c -1.23,-1.191 -2.91,-2.863 -6.555,-2.863 -4.543,0 -7.968,3.61 -7.968,7.946 0,3.382 2.172,6.367 5.351,7.476 0.449,0.164 2.543,0.648 5.403,1.348 1.097,0.293 2.332,0.574 3.472,2.086 0.864,1.07 1.274,2.414 1.274,3.757 0,2.918 -2.035,5.86 -5.477,5.86 -1.191,0 -4.305,-0.207 -6.473,-2.211 -2.371,-2.207 -2.496,-4.828 -2.535,-6.297 -0.043,-0.41 -0.363,-0.41 -0.484,-0.41 -0.531,0 -0.531,0.293 -0.531,1.027 v 8.184 c 0,0.691 0,0.969 0.449,0.969 0.285,0 0.32,-0.075 0.605,-0.52 0,-0.035 0.125,-0.164 1.469,-2.332 1.274,1.383 3.895,2.852 7.539,2.852 4.781,0 8.059,-4 8.059,-8.508 0,-4.09 -2.696,-7.438 -6.137,-8.262 z"
       style="fill:#000000;fill-opacity:1;fill-rule:evenodd;stroke:none"
       transform="scale(1.3333333)" />
    <path
       id="path9"
       d="m 123.672,178.832 -0.016,-0.488 -0.035,-0.485 -0.055,-0.476 -0.086,-0.469 -0.097,-0.461 -0.121,-0.449 -0.149,-0.445 -0.164,-0.434 -0.179,-0.418 -0.2,-0.41 -0.218,-0.402 -0.239,-0.399 -0.254,-0.367 -0.273,-0.363 -0.277,-0.352 -0.305,-0.328 -0.313,-0.32 -0.332,-0.305 -0.343,-0.285 -0.352,-0.262 -0.371,-0.254 -0.375,-0.23 -0.395,-0.215 -0.394,-0.195 -0.41,-0.176 -0.418,-0.145 -0.426,-0.129 -0.441,-0.109 -0.442,-0.09 -0.453,-0.055 -0.457,-0.046 -0.461,-0.008 -0.039,0.898 c 1.797,0 3.555,0.899 4.621,2.664 1.067,1.754 1.067,4.125 1.067,5.676 0,1.469 0,3.68 -0.903,5.477 -0.894,1.855 -2.695,3.031 -4.746,3.031 -1.754,0 -3.555,-0.86 -4.656,-2.735 -1.024,-1.804 -1.024,-4.304 -1.024,-5.773 0,-1.59 0,-3.797 0.977,-5.609 1.113,-1.871 3.023,-2.731 4.664,-2.731 l 0.039,-0.898 c -5.105,0 -9.082,4.453 -9.082,9.57 0,5.277 4.262,9.203 9.043,9.203 4.957,0 9.09,-4.008 9.09,-9.203 z"
       style="fill:#000000;fill-opacity:1;fill-rule:evenodd;stroke:none"
       transform="scale(1.3333333)" />
    <path
       id="path10"
       d="m 132.129,159.188 -5.887,0.453 v 1.269 c 2.86,0 3.196,0.281 3.196,2.289 v 21.278 c 0,1.835 -0.45,1.835 -3.196,1.835 v 1.274 c 1.348,-0.039 3.516,-0.129 4.543,-0.129 1.024,0 3.024,0.09 4.539,0.129 v -1.274 c -2.75,0 -3.195,0 -3.195,-1.835 z"
       style="fill:#000000;fill-opacity:1;fill-rule:evenodd;stroke:none"
       transform="scale(1.3333333)" />
    <path
       id="path11"
       d="m 153.238,173.961 0.032,-0.09 0.042,-0.101 0.04,-0.098 0.043,-0.098 0.05,-0.105 0.047,-0.106 0.059,-0.113 0.058,-0.109 0.055,-0.11 0.066,-0.117 0.075,-0.113 0.074,-0.117 0.082,-0.106 0.09,-0.117 0.195,-0.211 0.109,-0.094 0.114,-0.113 0.125,-0.094 0.129,-0.09 0.14,-0.093 0.149,-0.082 0.156,-0.071 0.164,-0.078 0.172,-0.066 0.18,-0.059 0.195,-0.051 0.207,-0.043 0.215,-0.039 0.117,-0.011 0.102,-0.016 0.125,-0.008 0.113,-0.008 0.125,-0.011 h 0.121 v -1.27 c -0.942,0.082 -2.125,0.117 -3.059,0.117 -0.988,0 -2.875,-0.078 -3.566,-0.117 v 1.27 c 1.512,0.043 1.961,0.976 1.961,1.765 0,0.356 -0.082,0.52 -0.246,0.973 l -4.172,10.426 -4.582,-11.399 c -0.238,-0.547 -0.238,-0.621 -0.238,-0.711 0,-1.054 1.589,-1.054 2.32,-1.054 v -1.27 c -1.219,0.039 -3.516,0.117 -4.453,0.117 -1.102,0 -2.742,-0.035 -3.965,-0.117 v 1.27 c 2.566,0 2.73,0.246 3.273,1.515 l 5.891,14.512 c 0.246,0.582 0.32,0.785 0.859,0.785 0.528,0 0.692,-0.379 0.856,-0.785 z"
       style="fill:#000000;fill-opacity:1;fill-rule:evenodd;stroke:none"
       transform="scale(1.3333333)" />
    <path
       id="path12"
       d="m 161.164,178.125 0.039,-0.859 c 0.246,-6.09 3.68,-7.106 5.086,-7.106 4.203,0 4.613,5.516 4.613,7.106 h -9.699 l -0.039,0.859 h 11.422 c 0.891,0 1.012,0 1.012,-0.859 0,-4.036 -2.203,-8.004 -7.309,-8.004 -4.746,0 -8.527,4.207 -8.527,9.328 0,5.476 4.304,9.445 9.008,9.445 4.992,0 6.828,-4.539 6.828,-5.312 0,-0.411 -0.325,-0.5 -0.532,-0.5 -0.367,0 -0.441,0.246 -0.531,0.574 -1.43,4.211 -5.109,4.211 -5.519,4.211 -2.051,0 -3.688,-1.223 -4.621,-2.735 -1.231,-1.961 -1.231,-4.671 -1.231,-6.148 z"
       style="fill:#000000;fill-opacity:1;fill-rule:evenodd;stroke:none"
       transform="scale(1.3333333)" />
    <path
       id="path13"
       d="M 181.578,173.996 V 169.5 l -5.683,0.453 v 1.27 c 2.859,0 3.195,0.281 3.195,2.285 v 10.969 c 0,1.835 -0.453,1.835 -3.195,1.835 v 1.274 c 1.605,-0.039 3.515,-0.129 4.671,-0.129 1.629,0 3.555,0 5.204,0.129 v -1.274 h -0.864 c -3.031,0 -3.121,-0.445 -3.121,-1.925 v -6.297 c 0,-4.039 1.723,-7.684 4.836,-7.684 0.289,0 0.359,0 0.453,0.043 -0.133,0.028 -0.953,0.52 -0.953,1.582 0,1.157 0.859,1.758 1.774,1.758 0.726,0 1.757,-0.484 1.757,-1.793 0,-1.312 -1.277,-2.496 -3.031,-2.496 -2.992,0 -4.457,2.738 -5.043,4.496 z"
       style="fill:#000000;fill-opacity:1;fill-rule:evenodd;stroke:none"
       transform="scale(1.3333333)" />
    <path
       id="path14"
       d="m 94.371,523.762 -5.141,-1.301 c -2.496,-0.633 -4.058,-2.891 -4.058,-5.313 0,-2.933 2.168,-5.503 5.305,-5.503 6.703,0 7.589,6.878 7.824,8.765 0.039,0.246 0.039,0.5 0.488,0.5 0.516,0 0.516,-0.207 0.516,-1.012 v -8.402 c 0,-0.726 0,-1.019 -0.434,-1.019 -0.281,0 -0.328,0.043 -0.605,0.558 l -1.399,2.383 c -1.215,-1.211 -2.855,-2.941 -6.437,-2.941 -4.457,0 -7.821,3.695 -7.821,8.136 0,3.465 2.129,6.532 5.246,7.657 0.45,0.175 2.5,0.671 5.309,1.386 1.078,0.293 2.289,0.586 3.41,2.133 0.848,1.09 1.25,2.473 1.25,3.852 0,2.98 -2,5.988 -5.379,5.988 -1.172,0 -4.222,-0.211 -6.355,-2.258 -2.324,-2.258 -2.449,-4.941 -2.492,-6.449 -0.039,-0.422 -0.352,-0.422 -0.473,-0.422 -0.516,0 -0.516,0.309 -0.516,1.055 v 8.367 c 0,0.715 0,1 0.434,1 0.281,0 0.312,-0.07 0.598,-0.535 0,-0.043 0.125,-0.168 1.445,-2.383 1.246,1.414 3.82,2.918 7.402,2.918 4.692,0 7.91,-4.09 7.91,-8.703 0,-4.188 -2.648,-7.614 -6.027,-8.457 z"
       style="fill:#000000;fill-opacity:1;fill-rule:evenodd;stroke:none"
       transform="scale(1.3333333)" />
    <path
       id="path15"
       d="m 121.629,531.051 -0.02,-0.496 -0.031,-0.496 -0.055,-0.485 -0.082,-0.48 -0.097,-0.477 -0.121,-0.461 -0.145,-0.457 -0.16,-0.441 -0.176,-0.43 -0.195,-0.426 -0.215,-0.406 -0.238,-0.398 -0.25,-0.391 -0.266,-0.367 -0.273,-0.356 -0.301,-0.343 -0.305,-0.321 -0.32,-0.308 -0.34,-0.297 -0.348,-0.277 -0.363,-0.25 -0.367,-0.239 -0.387,-0.215 -0.39,-0.207 -0.407,-0.172 -0.41,-0.156 -0.418,-0.129 -0.426,-0.113 -0.437,-0.094 -0.441,-0.054 -0.45,-0.039 -0.453,-0.012 -0.039,0.918 c 1.762,0 3.488,0.914 4.539,2.715 1.047,1.797 1.047,4.23 1.047,5.82 0,1.504 0,3.769 -0.887,5.609 -0.879,1.891 -2.644,3.098 -4.66,3.098 -1.726,0 -3.492,-0.875 -4.574,-2.797 -1.008,-1.855 -1.008,-4.406 -1.008,-5.91 0,-1.633 0,-3.887 0.961,-5.734 1.098,-1.918 2.965,-2.801 4.582,-2.801 l 0.039,-0.918 c -5.019,0 -8.918,4.558 -8.918,9.789 0,5.398 4.184,9.422 8.879,9.422 4.867,0 8.926,-4.098 8.926,-9.422 z"
       style="fill:#000000;fill-opacity:1;fill-rule:evenodd;stroke:none"
       transform="scale(1.3333333)" />
    <path
       id="path16"
       d="m 129.934,510.938 -5.786,0.468 v 1.297 c 2.809,0 3.137,0.293 3.137,2.352 v 21.777 c 0,1.879 -0.441,1.879 -3.137,1.879 v 1.297 c 1.325,-0.043 3.454,-0.133 4.457,-0.133 1.012,0 2.969,0.09 4.465,0.133 v -1.297 c -2.703,0 -3.136,0 -3.136,-1.879 z"
       style="fill:#000000;fill-opacity:1;fill-rule:evenodd;stroke:none"
       transform="scale(1.3333333)" />
    <path
       id="path17"
       d="m 141.051,521.504 -5.613,0.461 v 1.301 c 2.605,0 2.968,0.246 2.968,2.296 v 11.27 c 0,1.879 -0.433,1.879 -3.136,1.879 v 1.297 c 1.292,-0.043 3.449,-0.133 4.425,-0.133 1.414,0 2.809,0.09 4.176,0.133 v -1.297 c -2.648,0 -2.82,-0.211 -2.82,-1.844 z"
       style="fill:#000000;fill-opacity:1;fill-rule:evenodd;stroke:none"
       transform="scale(1.3333333)" />
    <path
       id="path18"
       d="m 141.223,514.215 -0.008,-0.125 -0.008,-0.121 -0.019,-0.117 -0.016,-0.122 -0.024,-0.105 -0.062,-0.223 -0.043,-0.093 -0.039,-0.102 -0.059,-0.105 -0.047,-0.09 -0.054,-0.09 -0.067,-0.086 -0.062,-0.082 -0.067,-0.078 -0.074,-0.074 -0.074,-0.067 -0.078,-0.066 -0.082,-0.078 -0.09,-0.043 -0.078,-0.059 -0.09,-0.051 -0.098,-0.047 -0.086,-0.043 -0.195,-0.058 -0.105,-0.039 -0.098,-0.016 -0.102,-0.019 -0.097,-0.012 -0.106,-0.016 h -0.105 c -1.246,0 -2.125,1.129 -2.125,2.227 0,1.125 0.879,2.215 2.125,2.215 1.121,0 2.133,-0.879 2.133,-2.215 z"
       style="fill:#000000;fill-opacity:1;fill-rule:evenodd;stroke:none"
       transform="scale(1.3333333)" />
    <path
       id="path19"
       d="m 160.344,537.707 v 2.762 l 5.898,-0.461 v -1.297 c -2.816,0 -3.129,-0.289 -3.129,-2.34 v -25.433 l -5.781,0.468 v 1.297 c 2.813,0 3.125,0.293 3.125,2.352 v 9.035 c -1.16,-1.496 -2.883,-2.586 -5.062,-2.586 l 0.16,0.922 c 1.41,0 3.097,0.633 4.347,2.508 0.442,0.707 0.442,0.796 0.442,1.546 v 8.59 c 0,0.746 0,0.84 -0.442,1.551 -1.211,2.008 -3.023,2.926 -4.75,2.926 -1.804,0 -3.25,-1.09 -4.207,-2.68 -1.047,-1.715 -1.168,-4.113 -1.168,-5.816 0,-1.547 0.071,-4.067 1.239,-5.949 0.847,-1.297 2.375,-2.676 4.539,-2.676 l -0.16,-0.922 c -4.743,0 -8.957,4.101 -8.957,9.492 0,5.324 3.941,9.473 8.515,9.473 2.57,0 4.383,-1.418 5.391,-2.762 z"
       style="fill:#000000;fill-opacity:1;fill-rule:evenodd;stroke:none"
       transform="scale(1.3333333)" />
    <path
       id="path20"
       d="m 94.371,573.992 -5.141,-1.293 c -2.496,-0.625 -4.058,-2.89 -4.058,-5.316 0,-2.938 2.168,-5.492 5.305,-5.492 6.703,0 7.589,6.871 7.824,8.757 0.039,0.25 0.039,0.5 0.488,0.5 0.516,0 0.516,-0.207 0.516,-1.011 v -8.407 c 0,-0.722 0,-1.007 -0.434,-1.007 -0.281,0 -0.328,0.035 -0.605,0.547 l -1.399,2.378 c -1.215,-1.21 -2.855,-2.925 -6.437,-2.925 -4.457,0 -7.821,3.687 -7.821,8.129 0,3.464 2.129,6.519 5.246,7.66 0.45,0.168 2.5,0.66 5.309,1.379 1.078,0.3 2.289,0.586 3.41,2.136 0.848,1.09 1.25,2.469 1.25,3.844 0,2.984 -2,5.996 -5.379,5.996 -1.172,0 -4.222,-0.211 -6.355,-2.262 -2.324,-2.261 -2.449,-4.941 -2.492,-6.445 -0.039,-0.422 -0.352,-0.422 -0.473,-0.422 -0.516,0 -0.516,0.305 -0.516,1.051 v 8.383 c 0,0.703 0,0.988 0.434,0.988 0.281,0 0.312,-0.074 0.598,-0.535 0,-0.035 0.125,-0.168 1.445,-2.387 1.246,1.418 3.82,2.922 7.402,2.922 4.692,0 7.91,-4.094 7.91,-8.707 0,-4.187 -2.648,-7.621 -6.027,-8.461 z"
       style="fill:#000000;fill-opacity:1;fill-rule:evenodd;stroke:none"
       transform="scale(1.3333333)" />
    <path
       id="path21"
       d="m 121.629,581.285 -0.02,-0.496 -0.031,-0.496 -0.055,-0.484 -0.082,-0.485 -0.097,-0.469 -0.121,-0.46 -0.145,-0.457 -0.16,-0.446 -0.176,-0.426 -0.195,-0.421 -0.215,-0.411 -0.238,-0.41 -0.25,-0.375 -0.266,-0.375 -0.273,-0.355 -0.301,-0.336 -0.305,-0.328 -0.32,-0.313 -0.34,-0.293 -0.348,-0.265 -0.363,-0.266 -0.367,-0.23 -0.387,-0.219 -0.39,-0.203 -0.407,-0.176 -0.41,-0.152 -0.418,-0.133 -0.426,-0.114 -0.437,-0.089 -0.441,-0.067 -0.45,-0.031 -0.453,-0.016 -0.039,0.918 c 1.762,0 3.488,0.922 4.539,2.723 1.047,1.801 1.047,4.23 1.047,5.82 0,1.504 0,3.762 -0.887,5.602 -0.879,1.898 -2.644,3.105 -4.66,3.105 -1.726,0 -3.492,-0.879 -4.574,-2.801 -1.008,-1.847 -1.008,-4.402 -1.008,-5.906 0,-1.633 0,-3.89 0.961,-5.746 1.098,-1.914 2.965,-2.797 4.582,-2.797 l 0.039,-0.918 c -5.019,0 -8.918,4.563 -8.918,9.797 0,5.403 4.184,9.422 8.879,9.422 4.867,0 8.926,-4.102 8.926,-9.422 z"
       style="fill:#000000;fill-opacity:1;fill-rule:evenodd;stroke:none"
       transform="scale(1.3333333)" />
    <path
       id="path22"
       d="m 129.934,561.176 -5.786,0.465 v 1.297 c 2.809,0 3.137,0.289 3.137,2.347 v 21.781 c 0,1.879 -0.441,1.879 -3.137,1.879 v 1.301 c 1.325,-0.043 3.454,-0.133 4.457,-0.133 1.012,0 2.969,0.09 4.465,0.133 v -1.301 c -2.703,0 -3.136,0 -3.136,-1.879 z"
       style="fill:#000000;fill-opacity:1;fill-rule:evenodd;stroke:none"
       transform="scale(1.3333333)" />
    <path
       id="path23"
       d="m 150.652,576.297 0.036,-0.09 0.078,-0.203 0.043,-0.102 0.093,-0.214 0.059,-0.114 0.055,-0.121 0.058,-0.105 0.063,-0.114 0.074,-0.121 0.07,-0.121 0.082,-0.105 0.09,-0.117 0.094,-0.114 0.098,-0.105 0.105,-0.102 0.113,-0.109 0.121,-0.102 0.129,-0.09 0.137,-0.093 0.145,-0.082 0.152,-0.078 0.16,-0.075 0.172,-0.07 0.18,-0.062 0.195,-0.051 0.199,-0.043 0.211,-0.043 0.113,-0.012 0.102,-0.012 0.121,-0.007 0.113,-0.012 0.121,-0.012 h 0.121 v -1.297 c -0.925,0.086 -2.089,0.117 -3.007,0.117 -0.969,0 -2.821,-0.074 -3.5,-0.117 v 1.297 c 1.484,0.043 1.929,1 1.929,1.801 0,0.367 -0.082,0.539 -0.242,1.004 l -4.097,10.676 -4.497,-11.68 c -0.238,-0.555 -0.238,-0.633 -0.238,-0.723 0,-1.078 1.559,-1.078 2.274,-1.078 v -1.297 c -1.192,0.043 -3.45,0.117 -4.368,0.117 -1.082,0 -2.695,-0.031 -3.894,-0.117 v 1.297 c 2.523,0 2.683,0.254 3.215,1.551 l 5.781,14.855 c 0.242,0.594 0.312,0.805 0.844,0.805 0.519,0 0.683,-0.387 0.843,-0.805 z"
       style="fill:#000000;fill-opacity:1;fill-rule:evenodd;stroke:none"
       transform="scale(1.3333333)" />
    <path
       id="path24"
       d="m 158.438,580.562 0.039,-0.871 c 0.242,-6.242 3.613,-7.285 4.988,-7.285 4.129,0 4.531,5.653 4.531,7.285 h -9.519 l -0.039,0.871 h 11.214 c 0.879,0 0.993,0 0.993,-0.871 0,-4.136 -2.165,-8.203 -7.18,-8.203 -4.66,0 -8.367,4.301 -8.367,9.555 0,5.605 4.222,9.664 8.843,9.664 4.907,0 6.704,-4.652 6.704,-5.437 0,-0.418 -0.317,-0.516 -0.516,-0.516 -0.363,0 -0.438,0.254 -0.524,0.59 -1.406,4.312 -5.015,4.312 -5.421,4.312 -2.016,0 -3.622,-1.25 -4.539,-2.801 -1.207,-2.003 -1.207,-4.781 -1.207,-6.293 z"
       style="fill:#000000;fill-opacity:1;fill-rule:evenodd;stroke:none"
       transform="scale(1.3333333)" />
    <path
       id="path25"
       d="m 178.48,576.332 v -4.598 l -5.582,0.465 v 1.297 c 2.809,0 3.137,0.289 3.137,2.34 v 11.23 c 0,1.879 -0.441,1.879 -3.137,1.879 v 1.301 c 1.575,-0.043 3.454,-0.133 4.59,-0.133 1.598,0 3.492,0 5.106,0.133 v -1.301 h -0.848 c -2.976,0 -3.062,-0.453 -3.062,-1.968 v -6.446 c 0,-4.136 1.691,-7.875 4.746,-7.875 0.281,0 0.355,0 0.445,0.043 -0.129,0.039 -0.934,0.543 -0.934,1.625 0,1.184 0.844,1.797 1.739,1.797 0.718,0 1.726,-0.5 1.726,-1.836 0,-1.34 -1.25,-2.551 -2.976,-2.551 -2.934,0 -4.375,2.801 -4.95,4.598 z"
       style="fill:#000000;fill-opacity:1;fill-rule:evenodd;stroke:none"
       transform="scale(1.3333333)" />
    <path
       id="path26"
       d="M 466.84,-76.387 H 631.573 V -191.836 H 466.84 Z"
       style="fill:none;stroke:#000000;stroke-width:2.62238;stroke-linecap:butt;stroke-linejoin:round;stroke-miterlimit:4;stroke-dasharray:none;stroke-opacity:1"
       transform="matrix(0,1.3332773,-1.3333333,0,0,0)" />
    <text
       id="text26"
       xml:space="preserve"
       transform="matrix(1.3333333,0,0,1.3332775,122.27842,655.40052)"><tspan
         id="tspan26"
         style="font-variant:normal;font-weight:normal;font-size:19.024px;font-family:'DejaVu Sans';writing-mode:lr-tb;fill:#000000;fill-opacity:1;fill-rule:nonzero;stroke:none"
         x="0"
         dx="0 0 -0.68486452"
         y="0">(Fortran)</tspan></text>
    <text
       id="text27"
       xml:space="preserve"
       transform="matrix(1.3333333,0,0,1.3332775,119.89653,284.03951)"><tspan
         id="tspan27"
         style="font-variant:normal;font-weight:normal;font-size:18.474px;font-family:'DejaVu Sans';writing-mode:lr-tb;fill:#000000;fill-opacity:1;fill-rule:nonzero;stroke:none"
         x="0"
         dx="0 0 0 0 0 0 -0.33253258"
         y="0">(icoFOAM)</tspan></text>
    <text
       id="text28"
       xml:space="preserve"
       transform="matrix(1.3333333,0,0,1.3332775,139.38585,131.50009)"><tspan
         id="tspan28"
         style="font-variant:normal;font-weight:normal;font-size:19.024px;font-family:'DejaVu Sans';writing-mode:lr-tb;fill:#000000;fill-opacity:1;fill-rule:nonzero;stroke:none"
         x="0"
         y="0">(C++)</tspan></text>
    <g
       opacity="0.27095"
       id="g29">
      <path
         d="M 0.426,-0.289 H 285.125 V 331.588 H 0.426 Z"
         style="fill:#bd8044;fill-opacity:1;fill-rule:nonzero;stroke:#000012;stroke-width:0.30029;stroke-linecap:butt;stroke-linejoin:round;stroke-miterlimit:4;stroke-dasharray:none;stroke-opacity:1"
         transform="scale(1.3333333,1.3332773)"
         clip-path="url(#clipPath28)"
         id="path29" />
    </g>
    <text
       id="text29"
       xml:space="preserve"
       transform="matrix(1.3333333,0,0,1.3332776,45.102695,48.297652)"><tspan
         id="tspan29"
         style="font-variant:normal;font-weight:normal;font-size:23.9781px;font-family:'DejaVu Sans';writing-mode:lr-tb;fill:#000000;fill-opacity:1;fill-rule:nonzero;stroke:none"
         x="0"
         dx="0 0 0 0 0 0 0 0 0 0 0 0 0 0 0 -0.43160605"
         y="0">ciliaparticleFOAM</tspan></text>
    <path
       id="path30"
       d="m 110.652,262.023 h 46.703 v 46.701 h -46.703 z"
       style="fill:none;stroke:#000000;stroke-width:1.73134;stroke-linecap:butt;stroke-linejoin:round;stroke-miterlimit:4;stroke-dasharray:none;stroke-opacity:1"
       transform="scale(1.3333333,1.3332773)" />
    <path
       id="path31"
       d="m 126.609,277.309 -0.5,0.132 -0.5,0.153 -0.484,0.183 -0.477,0.207 -0.464,0.227 -0.457,0.242 -0.454,0.27 -0.433,0.285 -0.422,0.301 -0.418,0.328 -0.406,0.34 -0.379,0.351 -0.379,0.363 -0.356,0.391 -0.343,0.398 -0.328,0.403 -0.321,0.429 -0.297,0.43 -0.285,0.442 -0.261,0.449 -0.243,0.457 -0.23,0.461 -0.211,0.472 -0.188,0.477 -0.164,0.484 -0.148,0.489 -0.129,0.492 -0.105,0.484 -0.075,0.492 -0.062,0.493 -0.035,0.492 -0.016,0.492 c 0,4.133 2.758,7.223 6.816,7.223 v -0.942 c -2.382,0 -4.136,-1.812 -4.136,-5.082 0,-2.711 1.59,-10.805 7.402,-12.359 1.082,1.969 2.363,4.304 2.363,7.398 0,2.856 -1.632,10.043 -5.629,10.043 v 0.942 c 5.04,0 8.602,-6.758 8.602,-12.696 0,-3.933 -1.711,-6.082 -3.191,-8.015 -1.536,-1.95 -4.071,-5.172 -4.071,-7.071 0,-0.957 0.844,-1.984 2.36,-1.984 1.297,0 2.144,0.551 3.05,1.164 0.868,0.512 1.731,1.082 2.379,1.082 1.075,0 1.723,-1.047 1.723,-1.73 0,-0.95 -0.691,-1.071 -2.25,-1.414 -2.23,-0.477 -2.836,-0.477 -3.527,-0.477 -3.364,0 -4.91,1.848 -4.91,4.43 0,2.34 1.25,4.746 2.589,7.379 z"
       style="fill:#000000;fill-opacity:1;fill-rule:evenodd;stroke:none"
       transform="scale(1.3333333)" />
    <path
       id="path32"
       d="m 143.762,282.555 v -0.024 h 0.011 v -0.011 l 0.008,-0.008 v -0.024 l 0.008,-0.011 v -0.024 l 0.004,-0.012 v -0.015 l 0.008,-0.024 0.015,-0.011 v -0.032 l 0.008,-0.011 0.004,-0.043 0.008,-0.035 0.008,-0.032 v -0.011 l 0.015,-0.024 v -0.012 l 0.008,-0.023 v -0.027 l 0.004,-0.016 v -0.02 l 0.008,-0.007 v -0.024 c 0,-0.164 -0.121,-0.429 -0.484,-0.429 -0.594,0 -3.09,0.238 -3.856,0.308 -0.242,0.027 -0.656,0.051 -0.656,0.695 0,0.414 0.414,0.414 0.777,0.414 1.453,0 1.453,0.219 1.453,0.461 0,0.207 -0.066,0.395 -0.129,0.665 l -4.254,17.054 c -0.148,0.535 -0.148,0.586 -0.148,0.656 0,0.45 0.363,0.957 1.031,0.957 0.336,0 0.907,-0.144 1.242,-0.777 0.079,-0.18 0.348,-1.262 0.493,-1.89 l 0.714,-2.692 c 0.079,-0.449 0.387,-1.59 0.465,-2.039 0.313,-1.152 0.313,-1.18 0.907,-2.148 0.976,-1.477 2.476,-3.192 4.828,-3.192 1.687,0 1.781,1.395 1.781,2.113 0,1.805 -1.301,5.145 -1.781,6.415 -0.332,0.851 -0.45,1.117 -0.45,1.636 0,1.59 1.321,2.574 2.852,2.574 3.031,0 4.352,-4.14 4.352,-4.609 0,-0.387 -0.391,-0.387 -0.485,-0.387 -0.422,0 -0.457,0.172 -0.57,0.508 -0.703,2.414 -2.023,3.653 -3.199,3.653 -0.641,0 -0.762,-0.418 -0.762,-1.055 0,-0.684 0.164,-1.082 0.707,-2.442 0.348,-0.933 1.59,-4.125 1.59,-5.808 0,-0.485 0,-1.758 -1.121,-2.625 -0.512,-0.395 -1.379,-0.809 -2.797,-0.809 -2.203,0 -3.797,1.203 -4.902,2.5 z"
       style="fill:#000000;fill-opacity:1;fill-rule:evenodd;stroke:none"
       transform="scale(1.3333333)" />
    <g
       opacity="0.27095"
       id="g34">
      <path
         d="M 36.711,442.968 H 252.219 V 655.891 H 36.711 Z"
         style="fill:#1d5049;fill-opacity:1;fill-rule:nonzero;stroke:#000012;stroke-width:0.300289;stroke-linecap:butt;stroke-linejoin:round;stroke-miterlimit:4;stroke-dasharray:none;stroke-opacity:1"
         transform="scale(1.3333333,1.3332773)"
         clip-path="url(#clipPath33)"
         id="path34" />
    </g>
    <text
       id="text34"
       xml:space="preserve"
       transform="matrix(1.3333333,0,0,1.3332776,89.298888,866.45373)"><tspan
         id="tspan34"
         style="font-variant:normal;font-weight:normal;font-size:18.0269px;font-family:'DejaVu Sans';writing-mode:lr-tb;fill:#000000;fill-opacity:1;fill-rule:nonzero;stroke:none"
         x="0"
         dx="0 0 0 0 0 0 0 0 0 0 0 -0.81121051"
         y="0">Interface/Wrapper</tspan></text>
    <g
       opacity="0.27095"
       id="g36">
      <path
         d="M 0.602,420.553 H 284.52 V 686.881 H 0.602 Z"
         style="fill:#bd8044;fill-opacity:1;fill-rule:nonzero;stroke:#000012;stroke-width:0.300289;stroke-linecap:butt;stroke-linejoin:round;stroke-miterlimit:4;stroke-dasharray:none;stroke-opacity:1"
         transform="scale(1.3333333,1.3332773)"
         clip-path="url(#clipPath35)"
         id="path36" />
    </g>
    <text
       id="text36"
       xml:space="preserve"
       transform="matrix(1.3333333,0,0,1.3332776,97.764291,904.74215)"><tspan
         id="tspan36"
         style="font-variant:normal;font-weight:normal;font-size:17.9003px;font-family:'DejaVu Sans';writing-mode:lr-tb;fill:#000000;fill-opacity:1;fill-rule:nonzero;stroke:none"
         x="0"
         dx="0 0 0 0 -0.39380562"
         y="0">Shared Library</tspan></text>
    <path
       id="path37"
       d="m 84.461,233.408 11.199,19.38 H 73.266 Z"
       style="fill:#000000;fill-opacity:1;fill-rule:evenodd;stroke:#000000;stroke-width:2.98619;stroke-linecap:butt;stroke-linejoin:miter;stroke-miterlimit:4;stroke-dasharray:none;stroke-opacity:1"
       transform="scale(1.3333333,1.3332773)" />
    <path
       id="path38"
       d="m 150.574,287.7 h 19.145"
       style="fill:none;stroke:#000000;stroke-width:1.41869;stroke-linecap:butt;stroke-linejoin:miter;stroke-miterlimit:4;stroke-dasharray:none;stroke-opacity:1"
       transform="scale(1.3333333,1.3332773)" />
    <path
       id="path39"
       d="M 113.34,288.145 H 94.195"
       style="fill:none;stroke:#000000;stroke-width:1.41869;stroke-linecap:butt;stroke-linejoin:miter;stroke-miterlimit:4;stroke-dasharray:none;stroke-opacity:1"
       transform="scale(1.3333333,1.3332773)" />
    <path
       id="path40"
       d="M 181.707,231.103 V 452.117"
       style="fill:none;stroke:#000000;stroke-width:2.81078;stroke-linecap:butt;stroke-linejoin:miter;stroke-miterlimit:4;stroke-dasharray:none;stroke-opacity:1"
       transform="scale(1.3333333,1.3332773)" />
    <path
       id="path41"
       d="m 181.707,465.09 -11.242,-19.45 h 22.488 z"
       style="fill:#000000;fill-opacity:1;fill-rule:evenodd;stroke:#000000;stroke-width:2.99816;stroke-linecap:butt;stroke-linejoin:miter;stroke-miterlimit:4;stroke-dasharray:none;stroke-opacity:1"
       transform="scale(1.3333333,1.3332773)" />
    <path
       id="path42"
       d="M 84.113,466.828 V 244.616"
       style="fill:none;stroke:#000000;stroke-width:2.79955;stroke-linecap:butt;stroke-linejoin:miter;stroke-miterlimit:4;stroke-dasharray:none;stroke-opacity:1"
       transform="scale(1.3333333,1.3332773)" />
    <path
       id="path43"
       d="m 179.598,287.442 -9.821,5.676 V 281.77 Z"
       style="fill:#000000;fill-opacity:1;fill-rule:evenodd;stroke:#000000;stroke-width:1.51327;stroke-linecap:butt;stroke-linejoin:miter;stroke-miterlimit:4;stroke-dasharray:none;stroke-opacity:1"
       transform="scale(1.3333333,1.3332773)" />
    <path
       id="path44"
       d="m 83.793,288.313 9.816,-5.672 v 11.344 z"
       style="fill:#000000;fill-opacity:1;fill-rule:evenodd;stroke:#000000;stroke-width:1.51327;stroke-linecap:butt;stroke-linejoin:miter;stroke-miterlimit:4;stroke-dasharray:none;stroke-opacity:1"
       transform="scale(1.3333333,1.3332773)" />
    <path
       id="path45"
       d="m 202.996,284.914 v 3.313 l 7.5,-0.254 v -1.993 c -2.633,0 -2.93,0 -2.93,-1.652 v -15.437 l -7.765,0.347 v 1.992 c 2.633,0 2.929,0 2.929,1.653 v 8.094 c 0,3.472 -2.164,5.718 -5.261,5.718 -3.25,0 -3.387,-1.047 -3.387,-3.351 v -14.453 l -7.77,0.347 v 1.992 c 2.641,0 2.93,0 2.93,1.653 v 9.883 c 0,4.527 3.442,5.461 7.629,5.461 1.109,0 4.164,0 6.125,-3.313 z"
       style="fill:#000000;fill-opacity:1;fill-rule:evenodd;stroke:none"
       transform="scale(1.3333333)" />
    <path
       id="path46"
       d="M 77.145,260.496 H 51.492 v 1.992 h 4.586 v 24.844 h -4.586 v 1.996 c 1.613,-0.137 5.895,-0.137 7.762,-0.137 2.074,0 6.707,0 8.562,0.137 v -1.996 h -5.73 v -11.453 h 2.129 c 4.07,0 4.453,1.82 4.453,4.961 h 2 v -11.91 h -2 c 0,3.136 -0.34,4.957 -4.453,4.957 h -2.129 v -11.399 h 5.945 c 6.824,0 7.813,3.262 8.434,8.223 h 1.988 z"
       style="fill:#000000;fill-opacity:1;fill-rule:evenodd;stroke:none"
       transform="scale(1.3333333)" />
  </g>
</svg>
